<svg xmlns="http://www.w3.org/2000/svg" viewBox="132.8 112.8 254.4 180.4">
  <path d="M 176 194 C 180 144, 212 120, 260 120 C 308 120, 340 144, 344 194 Z" fill="#f0e7d6"></path>
  <path d="M 260 120 C 308 120, 340 144, 344 194 L 314 194 C 312 152, 290 126, 260 120 Z" fill="#ded2bc" opacity="0.6"></path>
  <ellipse cx="260" cy="199" rx="120" ry="32" fill="#ded2bc"></ellipse>
  <ellipse cx="260" cy="194" rx="120" ry="32" fill="#e7dcc8"></ellipse>
  <ellipse cx="260" cy="194" rx="120" ry="32" fill="none" stroke="#ded2bc" stroke-width="3"></ellipse>
  <ellipse cx="260" cy="194" rx="90" ry="21" fill="none" stroke="#ded2bc" stroke-width="2" opacity="0.7"></ellipse>
  <path d="M 178 182 C 208 192, 312 192, 342 182 L 343 195 C 312 205, 208 205, 177 195 Z" fill="#c08c8c"></path>
  <path d="M 190 200 C 176 228, 168 258, 174 286 L 193 272 C 186 248, 188 220, 198 202 Z" fill="#c08c8c"></path>
  <path d="M 202 202 C 198 230, 202 260, 214 282 L 228 266 C 215 248, 211 224, 213 204 Z" fill="#cf9d9d"></path>
  <circle cx="306.0" cy="179.0" r="6" fill="#dcbcbc"></circle>
  <circle cx="298.4" cy="184.5" r="6" fill="#dcbcbc"></circle>
  <circle cx="301.3" cy="193.5" r="6" fill="#dcbcbc"></circle>
  <circle cx="310.7" cy="193.5" r="6" fill="#dcbcbc"></circle>
  <circle cx="313.6" cy="184.5" r="6" fill="#dcbcbc"></circle>
  <circle cx="306" cy="187" r="4" fill="#a87878"></circle>
</svg>
