<svg xmlns="http://www.w3.org/2000/svg" viewBox="126.7 95 244.8 172.7">
  <ellipse cx="199.4" cy="219.5" rx="69.2" ry="10" fill="#3f7a5e" transform="rotate(-152 199.4 219.5)"></ellipse>
  <ellipse cx="205" cy="208" rx="70.8" ry="10" fill="#4f8f6e" transform="rotate(-141.6 205 208)"></ellipse>
  <ellipse cx="212.9" cy="197.6" rx="72.3" ry="10" fill="#3f7a5e" transform="rotate(-131.2 212.9 197.6)"></ellipse>
  <ellipse cx="222.9" cy="188.9" rx="73.4" ry="10" fill="#4f8f6e" transform="rotate(-120.8 222.9 188.9)"></ellipse>
  <ellipse cx="234.6" cy="182.4" rx="74.3" ry="10" fill="#3f7a5e" transform="rotate(-110.4 234.6 182.4)"></ellipse>
  <ellipse cx="247.5" cy="178.3" rx="74.8" ry="10" fill="#4f8f6e" transform="rotate(-100 247.5 178.3)"></ellipse>
  <ellipse cx="261" cy="177" rx="75" ry="10" fill="#3f7a5e" transform="rotate(-89.6 261 177)"></ellipse>
  <ellipse cx="274.5" cy="178.5" rx="74.8" ry="10" fill="#4f8f6e" transform="rotate(-79.2 274.5 178.5)"></ellipse>
  <ellipse cx="287.4" cy="182.8" rx="74.3" ry="10" fill="#3f7a5e" transform="rotate(-68.8 287.4 182.8)"></ellipse>
  <ellipse cx="298.9" cy="189.5" rx="73.4" ry="10" fill="#4f8f6e" transform="rotate(-58.4 298.9 189.5)"></ellipse>
  <ellipse cx="308.8" cy="198.4" rx="72.2" ry="10" fill="#3f7a5e" transform="rotate(-48 308.8 198.4)"></ellipse>
  <ellipse cx="226.4" cy="225.3" rx="43.3" ry="8" fill="#a8453c" transform="rotate(-142 226.4 225.3)"></ellipse>
  <ellipse cx="232" cy="218" rx="44.4" ry="8" fill="#d9b26a" transform="rotate(-130 232 218)"></ellipse>
  <ellipse cx="239.3" cy="212.1" rx="45.2" ry="8" fill="#6fae8b" transform="rotate(-118 239.3 212.1)"></ellipse>
  <ellipse cx="247.9" cy="208" rx="45.7" ry="8" fill="#a8453c" transform="rotate(-106 247.9 208)"></ellipse>
  <ellipse cx="257.3" cy="206.1" rx="46" ry="8" fill="#d9b26a" transform="rotate(-94 257.3 206.1)"></ellipse>
  <ellipse cx="266.9" cy="206.5" rx="45.9" ry="8" fill="#6fae8b" transform="rotate(-82 266.9 206.5)"></ellipse>
  <ellipse cx="276.1" cy="209.2" rx="45.6" ry="8" fill="#a8453c" transform="rotate(-70 276.1 209.2)"></ellipse>
  <ellipse cx="284.3" cy="213.9" rx="44.9" ry="8" fill="#d9b26a" transform="rotate(-58 284.3 213.9)"></ellipse>
  <path d="M 166 212 Q 260.5 250 356 212" fill="none" stroke="#a8453c" stroke-width="20" stroke-linecap="round"></path>
  <circle cx="200" cy="222" r="7" fill="#d9b26a"></circle>
  <circle cx="232" cy="231" r="7" fill="#d9b26a"></circle>
  <circle cx="289" cy="231" r="7" fill="#d9b26a"></circle>
  <circle cx="321" cy="222" r="7" fill="#d9b26a"></circle>
  <circle cx="260.5" cy="234" r="15" fill="#d9b26a"></circle>
  <circle cx="260.5" cy="234" r="7" fill="#8c3730"></circle>
</svg>
